<?xml version="1.0" encoding="UTF-8"?>
<svg width="1024" height="1024" style="enable-background:new" version="1.1" viewBox="0 0 1024 1024" xmlns="http://www.w3.org/2000/svg">
 <path class="st0" d="m673.4 552.9c-2.4946-10.94-20.588-42.468-57.586-70.45-6.7625-5.1395-12.864-9.4073-17.943-12.804 7.3936-31.648-31.047-69.819-68.556-51.846-26.93-25.337-56.955-35.676-84.576-35.255-73.125 1.0219-129.54 77.212-68.857 149.92 0.03 0.03 0.0601 0.0601 0.12023 0.12022 0.93172 1.112 1.8935 2.2241 2.8552 3.3361 3.9373 4.7187 6.5521 8.8964 8.7762 16.26l18.093 59.299h-6.4018c-5.8908 0-10.7 4.7788-10.7 10.7h24.285l40.815 19.296c2.5246-5.3499 0.24045-11.722-5.0794-14.216l-10.7-5.0493h30.777c0-5.8909-4.7788-10.7-10.7-10.7h-27.891c-4.869 0-9.1969-3.1859-10.61-7.8444l-14.336-47.097c-3.5766-12.383 4.6285-20.468 12.353-21.429 7.033-0.87161 10.579 3.6668 13.886 14.667l12.743 41.777h-6.4018c-5.8908 0-10.7 4.7788-10.7 10.7h24.285l40.815 19.296c2.5246-5.3499 0.24043-11.722-5.0794-14.216l-10.7-5.0493h22.572c2.2842 3.8771 5.0794 7.5439 8.4155 10.85 21.039 21.039 55.212 21.039 76.25 0 21.039-21.039 21.039-55.212 0-76.25-21.039-21.039-55.212-21.039-76.25 0-14.787 14.787-19.205 36.066-13.194 54.701h-25.547c-4.869 0-9.197-3.1859-10.61-7.8444l-21.159-69.548 3.6066-1.9235c50.223-21.069 103.93 16.56 141.32-19.596 0.0902-0.0902 0.18032-0.18033 0.24043-0.24044 4.6285-4.2078 9.2571-8.5057 22.932 0.0601 14.727 9.227 47.217 33.301 61.944 74.477 0.03 0 8.9565-3.1859 6.492-14.096zm-103.33-91.218c-0.12022-5.6204-4.6886-10.129-10.369-10.129-5.7105 0-10.369 4.6285-10.369 10.369 0 3.1258 1.3826 5.8909 3.5465 7.7843-7.5138-1.4426-13.164-7.9947-13.164-15.899 0-8.9565 7.2433-16.2 16.2-16.2s16.2 7.2433 16.2 16.2c0 2.8553-0.75139 5.5302-2.0438 7.8745z"/>
</svg>
