<svg viewBox="100 80 784 784" xmlns="http://www.w3.org/2000/svg" xmlns:xlink="http://www.w3.org/1999/xlink"><linearGradient id="a" gradientUnits="userSpaceOnUse" x1="429" x2="429" y1="2.23" y2="858.58"><stop offset="0" stop-color="#e6e6e6"/><stop offset="1" stop-color="#f0f0f0" stop-opacity=".7"/></linearGradient><linearGradient id="b" gradientUnits="userSpaceOnUse" x1="885.41" x2="745.28" y1="1008.4" y2="623.44"><stop offset="0" stop-color="#ffaf00"/><stop offset=".62" stop-color="#ffce00"/><stop offset="1" stop-color="#fd0"/></linearGradient><circle cx="524.98" cy="335.06" fill="#00000f" r="23.14"/><circle cx="429" cy="429" fill="url(#a)" r="429"/><circle cx="815" cy="815" fill="url(#b)" r="209"/><path d="m750.38 512.46c-5.02-21.83-40.94-84.41-114.51-140.03-13.52-10.24-25.49-18.74-35.72-25.5 14.68-62.97-61.79-138.87-136.33-103.14-53.49-50.41-113.16-70.89-168-70.11-145.41 2.12-257.41 153.55-136.91 298.03l.19.19c1.93 2.12 3.67 4.44 5.6 6.57 7.92 9.46 12.94 17.77 17.38 32.26l35.92 117.82h-12.74c-11.78 0-21.24 9.46-21.24 21.25h48.28l81.1 38.44c5.02-10.62.39-23.37-10.04-28.2l-21.24-10.04h61.21c0-11.78-9.46-21.25-21.24-21.25h-55.42c-9.66 0-18.34-6.37-21.05-15.64l-28.58-93.68c-7.14-24.53 9.27-40.75 24.52-42.69 13.9-1.74 21.05 7.34 27.61 29.17l25.3 83.05h-12.74c-11.78 0-21.24 9.46-21.24 21.25h48.28l81.1 38.44c5.02-10.62.39-23.37-10.04-28.2l-21.24-10.04h44.8c4.63 7.73 10.04 15.07 16.8 21.63 42.61 42.62 111.97 41.9 153.68-2.15 38.5-40.66 38.5-106.66 0-147.32-41.71-44.05-111.07-44.77-153.68-2.15-29.35 29.36-38.23 71.66-26.26 108.74h-50.79c-9.66 0-18.34-6.37-21.05-15.64l-42.1-138.29 7.14-3.86c99.83-41.91 206.62 32.84 280.77-39.02l.39-.39c9.27-8.31 18.34-17 45.57 0 29.35 18.35 93.85 66.25 123.01 147.95 0 0 17.77-6.37 12.94-28.01l.58.58z" fill="#00000f"/><path d="m314.13 690.36-1.44-.69-80.78-38.28h-49.5v-1.59c0-12.59 10.25-22.84 22.84-22.84h10.59l-35.31-115.75c-4.56-14.97-9.72-22.97-17.06-31.72-.97-1.06-1.94-2.22-2.91-3.37-.87-1.06-1.72-2.12-2.66-3.16-51.75-62-65.25-132.41-37.22-193.41 29.47-64.16 98.19-106.34 175.09-107.47.97-.03 1.94-.03 2.94-.03 42.16 0 104.06 12.47 165.41 69.84 33.03-15.37 70.47-10.37 100.34 13.59 29.19 23.44 44.16 59.75 37.5 90.72 10.47 6.97 22.19 15.37 34.87 24.94 75.56 57.16 110.19 119.66 115.09 140.94l1.19 5.19-1.03-.97c1.69 18.97-14.53 25.03-14.72 25.09l-1.5.53-.53-1.5c-29.31-82.06-95.31-130.22-122.34-147.12-25.97-16.16-34.34-8.53-43.28-.5l-.69.66c-41.5 40.25-92.97 35.06-147.5 29.69-43.94-4.37-89.5-8.87-133.78 9.66l-5.87 3.19 41.72 137.03c2.5 8.56 10.53 14.53 19.53 14.53h48.59c-11.56-38.44-1.19-79.75 27.31-108.28 20.62-20.62 47.87-31.91 76.91-31.91h1.53c29.59.44 57.12 12.53 77.53 34.09 39.03 41.22 39.03 108.28 0 149.5-20.44 21.59-47.97 33.69-77.56 34.09h-1.53c-29.03 0-56.28-11.28-76.87-31.91-6.06-5.87-11.5-12.81-16.56-21.16h-36.78l14.81 7c5.41 2.5 9.53 7.03 11.59 12.75 2.12 5.81 1.81 12.06-.81 17.59l-.69 1.44-1.44-.69-80.78-38.28h-49.5v-1.59c0-12.59 10.25-22.84 22.84-22.84h10.59l-24.69-81c-6.12-20.37-12.31-28.25-22.81-28.25-.97 0-2 .09-3.06.22-7.91 1-15.37 5.81-20 12.84-3.56 5.44-7 14.69-3.19 27.81l28.56 93.62c2.5 8.56 10.53 14.53 19.53 14.53h55.41c12.59 0 22.84 10.25 22.84 22.84v1.59h-55.69l14.81 7c5.41 2.5 9.53 7.03 11.59 12.75 2.12 5.81 1.81 12.06-.81 17.59l-.69 1.44zm-128.47-42.16 47.31.16 79.59 37.72c1.66-4.37 1.69-9.16.06-13.66-1.78-4.91-5.31-8.81-9.97-10.97l-27.69-13.06h66.69c-.81-10.09-9.31-18.06-19.59-18.06h-55.41c-10.41 0-19.69-6.91-22.59-16.81l-28.56-93.62c-4.19-14.31-.34-24.47 3.59-30.47 5.12-7.81 13.44-13.16 22.28-14.28 16.31-2 23.25 10.09 29.31 30.28l25.94 85.12h-14.91c-10.28 0-18.78 7.97-19.59 18.06l47.31.16 79.59 37.72c1.66-4.37 1.69-9.16.06-13.66-1.78-4.91-5.31-8.81-9.97-10.97l-27.69-13.06h52.84l.47.78c5.06 8.44 10.47 15.41 16.53 21.28 20 20.03 46.47 31 74.62 31h1.5c28.72-.41 55.44-12.16 75.28-33.09 37.87-40 37.87-105.12 0-145.12-19.81-20.94-46.53-32.66-75.25-33.06h-1.5c-28.19 0-54.62 10.94-74.66 30.94-28.16 28.22-38.06 69.25-25.84 107.12l.66 2.09h-52.97c-10.41 0-19.69-6.91-22.59-16.81l-42.47-139.5 8.31-4.5c45.16-18.97 91.06-14.37 135.5-9.97 53.69 5.37 104.47 10.44 144.91-28.78l.81-.75c9.41-8.44 19.22-17.25 47.09.19 27.12 16.94 93.16 65.09 123.06 147.12 3.97-2.03 14.19-8.94 10.47-25.5l-1.16-5.12.03.03c-8.84-24.53-44-81.91-112.19-133.44-13-9.81-24.97-18.37-35.62-25.44l-.94-.62.25-1.09c7-30-7.53-65.59-36.12-88.56-29.22-23.41-65.84-28.12-97.97-12.75l-1 .47-.78-.75c-60.81-57.28-122.25-69.69-164-69.69h-2.87c-75.69 1.12-143.31 42.56-172.25 105.59-27.47 59.84-14.16 129.03 36.53 189.81 1.09 1.19 2 2.28 2.91 3.41.94 1.12 1.84 2.22 2.84 3.28 7.66 9.16 12.97 17.44 17.72 32.91l36.56 119.87h-14.91c-10.28 0-18.78 7.97-19.59 18.06z" fill="#00000f"/><path d="m505.89 331.66c0-9.9 8.02-17.92 17.92-17.92s17.9 8 17.92 17.88c2.45-4.1 3.86-8.9 3.86-14.02 0-15.13-12.26-27.39-27.39-27.39s-27.39 12.26-27.39 27.39c0 12.57 8.47 23.16 20.02 26.38-3.05-3.21-4.93-7.54-4.93-12.32z" fill="#fff"/><path d="m515.98 347.08-5.59-1.56c-12.47-3.47-21.19-14.94-21.19-27.91 0-16 13-29 29-29s28.97 13 28.97 29c0 5.22-1.41 10.34-4.06 14.84l-2.97 5v-5.81c-.03-9-7.37-16.31-16.34-16.31s-16.31 7.34-16.31 16.34c0 4.19 1.59 8.16 4.5 11.22l4 4.19zm2.22-55.28c-14.22 0-25.81 11.59-25.81 25.81 0 9.78 5.59 18.59 14.06 22.94-1.41-2.72-2.16-5.75-2.16-8.87 0-10.78 8.75-19.53 19.5-19.53 8.84 0 16.34 5.91 18.72 14 .97-2.72 1.47-5.62 1.47-8.53 0-14.22-11.56-25.81-25.78-25.81z" fill="#fff"/><circle cx="523.11" cy="327.79" fill="#00000f" r="19.87"/></svg>
