<?xml version="1.0" encoding="UTF-8"?>
<svg width="512" height="512" style="enable-background:new" version="1.0" xmlns="http://www.w3.org/2000/svg">
 <title>Kiwix App Icon</title>
 <rect width="512" height="512" style="fill:#fff"/>
 <path d="m419.78 332.63c0 35.275-28.249 63.872-63.092 63.872s-63.091-28.596-63.091-63.872c0-35.275 28.248-63.871 63.091-63.871s63.092 28.596 63.092 63.871z"/>
 <path d="m193.58 104.01c-1.015-0.0102-2.0277-7e-3 -3.0374 8e-3 -89.326 1.305-157.38 99.757-70.127 189.13l23.256 61.349c3.8598 14.024-9.2384 44.886-3.4391 53.503 6.6797-13.232 8.3614-32.15 17.192-34.331 15.53 10.991 38.503 14.719 51.488 28.891 4.8512-13.74-14.827-20.756-31.309-28.624 15.402 2.5761 26.059-5.7895 37.462 7.6679 1.6805-6.8078-0.44618-12.013-4.8866-16.229l-6.9668-9.5408c12.88 6.8525 44.939 6.8096 52.301 18.815 2.8492-22.719-24.11-14.96-36.829-21.758 8.253 1.0244 16.453-3.0887 24.614-1.9615-2.1869-6.3728-5.9433-9.1296-11.493-8.6498-43.761 10.451-46.842-63.615-46.239-84.625 58.744-24.97 118.07 19.824 165.32-23.184 15.473-23.159 79.334 37.326 98.994 88.547 29.397-12.455-54.465-93.807-78.815-115.83 12.72-33.877-36.842-83.191-81.62-61.439-30.522-29.04-64.406-41.423-95.868-41.74zm129.92 63.522a17.544 18.658 0 0 1 17.544 18.658 17.544 18.658 0 0 1-0.79713 4.2622 11.528 12.26 0 0 0-9.0343-4.65 11.528 12.26 0 0 0-11.528 12.261 11.528 12.26 0 0 0 1.6786 6.3328 17.544 18.658 0 0 1-15.407-18.206 17.544 18.658 0 0 1 17.545-18.658zm-156.66 119.56c4.2835-0.0775 7.7503 2.2482 8.4164 7.0446l9.5009 45.477c-5.1205 1.4765-7.3483 6.6098-6.3339 15.873 2.1692-2.5644 3.0608-6.9452 8.0524-5.5281l11.765 15.159c-40.008 3.1349-43.091-19.515-50.043-56.98 2.1194-13.907 11.503-20.889 18.642-21.044z"/>
</svg>
