<?xml version="1.0" encoding="UTF-8"?>
<svg width="512" height="512" style="enable-background:new" version="1.0" xmlns="http://www.w3.org/2000/svg">
 <title>Kiwix App Icon</title>
 <rect width="512" height="512" style="fill:#fff"/>
 <path d="m444.82 304.02c-2.9184-12.799-24.086-49.683-67.369-82.419-7.9114-6.0126-15.049-11.006-20.991-14.979 8.6497-37.025-36.322-81.68-80.203-60.654-31.505-29.641-66.631-41.737-98.945-41.244-85.548 1.1955-151.55 90.33-80.555 175.39 0.0351 0.0351 0.0703 0.0703 0.14065 0.14064 1.09 1.301 2.2152 2.602 3.3403 3.9029 4.6062 5.5204 7.6652 10.408 10.267 19.022l21.167 69.374h-7.4894c-6.8916 0-12.518 5.5907-12.518 12.518h28.411l47.749 22.574c2.9536-6.2588 0.28129-13.713-5.9423-16.631l-12.518-5.9071h36.005c0-6.8917-5.5907-12.518-12.518-12.518h-32.63c-5.6962 0-10.759-3.7271-12.412-9.1772l-16.772-55.098c-4.1842-14.487 5.4149-23.945 14.451-25.07 8.2278-1.0197 12.377 4.2897 16.245 17.159l14.908 48.875h-7.4894c-6.8917 0-12.518 5.5907-12.518 12.518h28.411l47.749 22.574c2.9536-6.2588 0.28128-13.713-5.9423-16.631l-12.518-5.9071h26.406c2.6723 4.5358 5.9423 8.8255 9.8452 12.693 24.613 24.613 64.592 24.613 89.205 0 24.613-24.613 24.613-64.592 0-89.205-24.613-24.613-64.592-24.613-89.205 0-17.299 17.299-22.468 42.194-15.436 63.994h-29.887c-5.6962 0-10.759-3.7271-12.412-9.1772l-24.754-81.364 4.2194-2.2503c58.755-24.648 121.59 19.374 165.33-22.925l0.28128-0.28128c5.4149-4.9226 10.83-9.9507 26.828 0.0703 17.229 10.795 55.239 38.959 72.468 87.13 0.0351 0 10.478-3.7271 7.5949-16.491zm-120.89-106.72c-0.14064-6.5752-5.4852-11.849-12.131-11.849-6.6807 0-12.131 5.4149-12.131 12.131 0 3.6568 1.6174 6.8917 4.1491 9.1068-8.7904-1.6878-15.401-9.353-15.401-18.6 0-10.478 8.4739-18.952 18.952-18.952 10.478 0 18.952 8.4739 18.952 18.952 0 3.3404-0.87904 6.4697-2.391 9.2123z" style="fill:#010101;stroke-width:.35162"/>
</svg>
